<svg xmlns="http://www.w3.org/2000/svg" viewBox="0 0 900 620">
  <defs>
    <linearGradient id="whiteArmor" x1="0" x2="1">
      <stop offset="0" stop-color="#f7fbff"/>
      <stop offset="1" stop-color="#9fb8d8"/>
    </linearGradient>

    <linearGradient id="blueArmor" x1="0" x2="1">
      <stop offset="0" stop-color="#2280ff"/>
      <stop offset="1" stop-color="#073da8"/>
    </linearGradient>

    <linearGradient id="redArmor" x1="0" x2="1">
      <stop offset="0" stop-color="#ff3c45"/>
      <stop offset="1" stop-color="#b50012"/>
    </linearGradient>
  </defs>

  <g transform="translate(110,70) rotate(-8)">
    <polygon points="150,45 210,95 165,135 95,95" fill="url(#whiteArmor)"/>
    <polygon points="120,25 160,75 110,95" fill="#ffb300"/>
    <polygon points="195,25 175,85 225,85" fill="#ffb300"/>
    <polygon points="105,110 185,120 210,230 75,225" fill="url(#blueArmor)"/>
    <polygon points="185,120 295,145 260,245 205,230" fill="url(#whiteArmor)"/>
    <polygon points="72,135 10,190 55,240 105,190" fill="url(#whiteArmor)"/>
    <polygon points="290,150 395,95 415,160 315,225" fill="url(#whiteArmor)"/>
    <polygon points="115,230 190,230 175,410 95,425" fill="url(#whiteArmor)"/>
    <polygon points="205,235 270,260 320,430 235,420" fill="url(#whiteArmor)"/>
    <polygon points="88,415 180,405 150,500 35,520" fill="url(#blueArmor)"/>
    <polygon points="235,420 325,430 360,525 245,500" fill="url(#blueArmor)"/>
    <polygon points="145,135 175,145 160,180 125,170" fill="url(#redArmor)"/>
  </g>

  <g transform="translate(360,0)">
    <polygon points="245,25 310,120 252,165 170,115" fill="url(#whiteArmor)"/>
    <polygon points="208,0 245,95 190,80" fill="#ffb300"/>
    <polygon points="300,5 285,100 345,76" fill="#ffb300"/>
    <polygon points="175,150 290,165 335,320 145,320" fill="url(#whiteArmor)"/>
    <polygon points="205,175 290,180 270,235 225,245" fill="url(#blueArmor)"/>
    <polygon points="140,180 35,280 88,355 165,270" fill="url(#whiteArmor)"/>
    <polygon points="333,180 485,95 525,180 380,300" fill="url(#blueArmor)"/>
    <polygon points="158,320 245,320 225,530 110,545" fill="url(#whiteArmor)"/>
    <polygon points="260,322 345,330 430,550 290,530" fill="url(#whiteArmor)"/>
    <polygon points="110,540 230,520 195,610 45,595" fill="url(#blueArmor)"/>
    <polygon points="288,530 430,550 470,610 315,605" fill="url(#blueArmor)"/>
    <polygon points="185,185 230,205 212,255 160,235" fill="url(#redArmor)"/>
    <polygon points="310,190 360,205 340,260 288,240" fill="url(#redArmor)"/>
    <polygon points="500,170 565,230 505,430 450,280" fill="url(#redArmor)"/>
  </g>
</svg>